# xmcd CD database file
#
# Track frame offsets:
#	150
#	23067
#	36535
#	49995
#	66627
#	84312
#	98922
#	120510
#	137587
#	142700
#	162500
#	182092
#
# Disc length: 2654 seconds
#
# Revision: 0
# Processed by: cddbd v1.5.1PL0 Copyright (c) Steve Scherf et al.
# Submitted via: CDex 1.40Beta9
#
DISCID=a50a5c0c
DTITLE=高田渡 - 渡
DYEAR=1993
DGENRE=Folk
TTITLE0=仕事さがし
TTITLE1=スキンシップ・ブルース
TTITLE2=病い
TTITLE3=相子
TTITLE4=イキテル・ソング〜野性の花
TTITLE5=ホントはみんな
TTITLE6=こいつは墓場にならなくちゃ
TTITLE7=夕暮れ
TTITLE8=酒心
TTITLE9=生活の柄
TTITLE10=さびしいといま
TTITLE11=風
EXTD=YEAR: 1993 ID3G: 80
EXTT0=
EXTT1=
EXTT2=
EXTT3=
EXTT4=
EXTT5=
EXTT6=
EXTT7=
EXTT8=
EXTT9=
EXTT10=
EXTT11=
PLAYORDER=
